<svg id="Layer_1" data-name="Layer 1" xmlns="http://www.w3.org/2000/svg" viewBox="0 0 600 600"><defs><style>.cls-1{fill:#dee8fc;}.cls-1,.cls-2,.cls-4,.cls-5{stroke:#202f5b;stroke-miterlimit:10;}.cls-1,.cls-2{stroke-width:12px;}.cls-2{fill:#4d88ff;}.cls-3{fill:#699bff;}.cls-4,.cls-5{fill:none;}.cls-4{stroke-width:8px;}.cls-5{stroke-width:6px;}</style></defs><title>WAD-Icons</title><path class="cls-1" d="M174,128h286.9a46.61,46.61,0,0,1,46.47,46.47v264.2a46.61,46.61,0,0,1-46.47,46.47H389.07a94.54,94.54,0,0,0,35.39-73.64v-18c0-52-42.58-94.62-94.62-94.62h-18c-52,0-94.62,42.58-94.62,94.62v18a94.54,94.54,0,0,0,35.39,73.64H174a46.61,46.61,0,0,1-46.47-46.47V174.47A46.61,46.61,0,0,1,174,128Z"/><path class="cls-2" d="M252.63,485.14a94,94,0,0,0,59.23,21h18a94.9,94.9,0,0,0,94.62-94.62v-18c0-52-42.58-94.62-94.62-94.62h-18c-52,0-94.62,42.58-94.62,94.62v18A94.54,94.54,0,0,0,252.63,485.14Z"/><path class="cls-3" d="M340.26,306.35s-86.42-13-111.23,65.38,47.24,117.76,42.82,113S176.43,345.58,340.26,306.35Z"/><path class="cls-4" d="M278.86,455.09a4.25,4.25,0,0,1-3-7.25l89.9-89.9a4.25,4.25,0,0,1,6,6l-89.9,89.9A4.24,4.24,0,0,1,278.86,455.09Z"/><path class="cls-4" d="M355.46,455.09A17.55,17.55,0,1,1,373,437.54,17.57,17.57,0,0,1,355.46,455.09Zm0-26.61a9.05,9.05,0,1,0,9.05,9.05A9.06,9.06,0,0,0,355.46,428.49Z"/><path class="cls-4" d="M292.16,391.8a17.55,17.55,0,1,1,17.55-17.55A17.57,17.57,0,0,1,292.16,391.8Zm0-26.61a9.05,9.05,0,1,0,9.05,9.05A9.06,9.06,0,0,0,292.16,365.19Z"/><path class="cls-5" d="M226.93,254H204.54a1.36,1.36,0,0,1-1.36-1.36V226.36h-.31a7.24,7.24,0,0,1-7.23-7.23V201.66a7.24,7.24,0,0,1,7.23-7.23h25.72a7.24,7.24,0,0,1,7.23,7.23v17.47a7.24,7.24,0,0,1-7.23,7.23h-.31v26.32A1.36,1.36,0,0,1,226.93,254Zm-21-2.71h19.68V225a1.36,1.36,0,0,1,1.36-1.36h1.66a4.52,4.52,0,0,0,4.52-4.52V201.66a4.52,4.52,0,0,0-4.52-4.52H202.87a4.52,4.52,0,0,0-4.52,4.52v17.47a4.52,4.52,0,0,0,4.52,4.52h1.66a1.36,1.36,0,0,1,1.36,1.36Z"/><path class="cls-5" d="M215.73,191.27a13.38,13.38,0,1,1,13.38-13.38A13.39,13.39,0,0,1,215.73,191.27Zm0-24a10.66,10.66,0,1,0,10.66,10.67A10.68,10.68,0,0,0,215.73,167.22Z"/><path class="cls-5" d="M420.2,254.6H397.81a1.36,1.36,0,0,1-1.36-1.36V226.93h-.31a7.24,7.24,0,0,1-7.23-7.23V202.22a7.24,7.24,0,0,1,7.23-7.23h25.72a7.24,7.24,0,0,1,7.23,7.23V219.7a7.24,7.24,0,0,1-7.23,7.23h-.31v26.32A1.36,1.36,0,0,1,420.2,254.6Zm-21-2.71h19.68V225.57a1.36,1.36,0,0,1,1.36-1.36h1.66a4.52,4.52,0,0,0,4.52-4.52V202.22a4.52,4.52,0,0,0-4.52-4.52H396.15a4.52,4.52,0,0,0-4.52,4.52V219.7a4.52,4.52,0,0,0,4.52,4.52h1.66a1.36,1.36,0,0,1,1.36,1.36Z"/><path class="cls-5" d="M409,191.83a13.38,13.38,0,1,1,13.38-13.38A13.39,13.39,0,0,1,409,191.83Zm0-24a10.66,10.66,0,1,0,10.66,10.67A10.68,10.68,0,0,0,409,167.79Z"/><path class="cls-5" d="M355.51,247.82h-73a1.57,1.57,0,0,1-1.56-1.38l-8.2-66h-16a1.57,1.57,0,1,1,0-3.15h17.38a1.57,1.57,0,0,1,1.56,1.38l2.88,23.17a1.59,1.59,0,0,1,.56-.1h85.72a1.58,1.58,0,0,1,1.54,1.91l-9.35,42.91A1.58,1.58,0,0,1,355.51,247.82Zm-71.61-3.15h70.34l8.66-39.77H279Z"/><path class="cls-5" d="M301.08,281.5A11.89,11.89,0,1,1,313,269.6,11.91,11.91,0,0,1,301.08,281.5Zm0-20.64a8.75,8.75,0,1,0,8.74,8.75A8.76,8.76,0,0,0,301.08,260.85Z"/><path class="cls-5" d="M340.1,281.5A11.89,11.89,0,1,1,352,269.6,11.91,11.91,0,0,1,340.1,281.5Zm0-20.64a8.75,8.75,0,1,0,8.74,8.75A8.76,8.76,0,0,0,340.1,260.85Z"/><path class="cls-5" d="M308.36,246.73a1.57,1.57,0,0,1-1.57-1.57V205a1.57,1.57,0,0,1,3.15,0v40.2A1.57,1.57,0,0,1,308.36,246.73Z"/><path class="cls-5" d="M333.9,246.19a1.57,1.57,0,0,1-1.57-1.57V203.33a1.57,1.57,0,0,1,3.15,0v41.28A1.57,1.57,0,0,1,333.9,246.19Z"/><path class="cls-5" d="M359.32,227.18H279.95a1.57,1.57,0,1,1,0-3.15h79.37a1.57,1.57,0,1,1,0,3.15Z"/></svg>