<?xml version="1.0" standalone="no"?>
<!DOCTYPE svg PUBLIC "-//W3C//DTD SVG 1.1//EN" "http://www.w3.org/Graphics/SVG/1.1/DTD/svg11.dtd" >
<svg xmlns="http://www.w3.org/2000/svg">
<defs>
  <font id="caroevg" horiz-adv-x="256">
    <font-face font-family="caroevg"
      units-per-em="256" ascent="256"
      descent="0" />
    <missing-glyph horiz-adv-x="0" />
    <glyph glyph-name="distance"
      unicode="&#xEA02;"
      horiz-adv-x="256" d="M117.3333333333333 32A74.752 74.752 0 0 0 42.6666666666667 106.6666666666667A10.666666666666666 10.666666666666666 0 0 0 64 106.6666666666667A53.397333333333336 53.397333333333336 0 0 1 117.3333333333333 53.3333333333333A10.666666666666666 10.666666666666666 0 0 0 117.3333333333333 32zM53.3333333333333 256A53.397333333333336 53.397333333333336 0 0 1 0 202.6666666666667C0 175.872 38.3146666666667 138.208 45.9946666666667 130.9226666666667A10.666666666666666 10.666666666666666 0 0 1 60.672 130.9226666666667C68.352 138.208 106.6666666666667 175.872 106.6666666666667 202.6666666666667A53.397333333333336 53.397333333333336 0 0 1 53.3333333333333 256zM53.3333333333333 181.3333333333334A21.333333333333332 21.333333333333332 0 1 0 74.6666666666667 202.6666666666667A21.333333333333332 21.333333333333332 0 0 0 53.3333333333333 181.3333333333334zM181.3333333333333 202.6666666666667A74.752 74.752 0 0 1 106.6666666666667 128C106.6666666666667 89.4506666666667 166.816 26.3146666666667 173.6746666666667 19.2A10.666666666666666 10.666666666666666 0 0 1 188.992 19.2C195.8506666666667 26.3146666666667 256 89.4506666666667 256 128A74.752 74.752 0 0 1 181.3333333333333 202.6666666666667zM181.3333333333333 96A32 32 0 1 0 213.3333333333333 128A32 32 0 0 0 181.3333333333333 96z" />
    <glyph glyph-name="square-pin"
      unicode="&#xEA03;"
      horiz-adv-x="256" d="M234.6666666666667 0H21.3333333333333C17.632 0 14.208 1.92 12.256 5.056C10.3146666666667 8.2026666666667 10.1333333333333 12.128 11.7866666666667 15.4346666666667L43.7866666666667 79.4346666666667C46.4213333333333 84.704 52.8213333333333 86.8373333333334 58.1013333333333 84.2026666666667C63.3706666666667 81.568 65.504 75.1573333333334 62.8693333333333 69.888L38.592 21.3333333333333H217.408L193.1306666666666 69.8986666666667C190.496 75.168 192.6293333333333 81.5786666666667 197.8986666666666 84.2133333333333C203.1786666666666 86.848 209.5786666666666 84.704 212.2133333333333 79.4453333333333L244.2133333333333 15.4453333333333C245.8666666666667 12.1386666666666 245.6853333333333 8.2133333333333 243.744 5.0666666666666C241.792 1.92 238.368 0 234.6666666666667 0zM128 256C86.048 256 42.6666666666667 224.0853333333333 42.6666666666667 170.6666666666667C42.6666666666667 121.6 112.4693333333333 49.8453333333333 120.4266666666667 41.8133333333333C122.432 39.7973333333333 125.152 38.6666666666667 128 38.6666666666667S133.568 39.7973333333333 135.5733333333333 41.8133333333333C143.5306666666667 49.8453333333333 213.3333333333333 121.6 213.3333333333333 170.6666666666667C213.3333333333333 224.0853333333333 169.952 256 128 256zM128 149.3333333333334C116.2133333333334 149.3333333333334 106.6666666666667 158.88 106.6666666666667 170.6666666666667C106.6666666666667 182.4533333333333 116.2133333333334 192 128 192S149.3333333333334 182.4533333333333 149.3333333333334 170.6666666666667C149.3333333333333 158.88 139.7866666666667 149.3333333333334 128 149.3333333333334z" />
    <glyph glyph-name="position-pin"
      unicode="&#xEA04;"
      horiz-adv-x="256" d="M195.7546666666667 79.584C190.8266666666667 72.8106666666667 185.8453333333333 66.3893333333333 180.96 60.4373333333333C212.6186666666667 55.8613333333333 231.584 47.904 234.5173333333333 42.6773333333333C230.208 34.976 191.2 21.344 128 21.344C63.5413333333333 21.344 24.2453333333333 35.5306666666667 21.2693333333333 42.2293333333333C23.3066666666666 47.4453333333333 42.432 55.744 75.0186666666666 60.448C70.144 66.4 65.1626666666666 72.8213333333333 60.2346666666666 79.5946666666667C27.744 73.6533333333334 0 62.432 0 42.6666666666667C0 8.9813333333333 80.4586666666667 0 128 0S256 8.9813333333334 256 42.6666666666667C256 62.432 228.256 73.6533333333334 195.7546666666667 79.584zM128 256C86.048 256 42.6666666666667 224.0853333333333 42.6666666666667 170.6666666666667C42.6666666666667 121.6 112.4693333333333 49.8453333333333 120.4266666666667 41.8133333333333C122.432 39.7973333333333 125.152 38.6666666666667 128 38.6666666666667S133.568 39.7973333333333 135.5733333333333 41.8133333333333C143.5306666666667 49.8453333333333 213.3333333333333 121.6 213.3333333333333 170.6666666666667C213.3333333333333 224.0853333333333 169.952 256 128 256zM128 149.3333333333334C116.2133333333334 149.3333333333334 106.6666666666667 158.88 106.6666666666667 170.6666666666667S116.2133333333334 192 128 192S149.3333333333334 182.4533333333333 149.3333333333334 170.6666666666667S139.7866666666667 149.3333333333334 128 149.3333333333334z" />
    <glyph glyph-name="pin-check"
      unicode="&#xEA05;"
      horiz-adv-x="256" d="M106.6666666666667 53.3333333333333C106.6666666666667 94.5706666666667 140.096 128 181.3333333333333 128C186.048 128 190.6346666666667 127.5093333333333 195.104 126.6773333333333C199.776 138.3253333333333 202.6666666666667 149.664 202.6666666666667 160C202.6666666666667 220.096 153.856 256 106.6666666666667 256S10.6666666666667 220.096 10.6666666666667 160C10.6666666666667 103.584 95.488 17.4613333333334 99.0933333333333 13.8133333333333C101.0986666666667 11.7973333333334 103.8186666666667 10.6666666666667 106.6666666666667 10.6666666666667S112.2346666666667 11.7973333333333 114.24 13.8133333333334C114.5173333333333 14.0906666666667 115.424 15.0186666666667 116.5973333333333 16.2346666666667C110.3146666666667 27.1786666666667 106.6666666666667 39.8186666666667 106.6666666666667 53.3333333333333zM74.6666666666667 160C74.6666666666667 177.6746666666667 88.992 192 106.6666666666667 192S138.6666666666667 177.6746666666667 138.6666666666667 160S124.3413333333333 128 106.6666666666667 128S74.6666666666667 142.3253333333333 74.6666666666667 160zM160 16.9173333333333L123.584 53.3333333333333L138.6666666666667 68.416L160 47.0826666666667L213.3333333333333 100.416L228.416 85.3333333333333z" />
    <glyph glyph-name="delivery"
      unicode="&#xEA06;"
      horiz-adv-x="256" d="M74.6666666666667 245.3333333333334H0V53.3333333333333H96V224C96 235.7866666666667 86.4533333333333 245.3333333333334 74.6666666666667 245.3333333333334zM250.1013333333333 137.5466666666667L211.8186666666667 156.6826666666667L202.3466666666666 194.5813333333333C201.1626666666667 199.3386666666667 196.896 202.6666666666667 192 202.6666666666667H174.6666666666667H117.3333333333333C117.3333333333333 202.6666666666667 117.3333333333333 69.856 117.3333333333333 64S117.8773333333333 53.3333333333333 117.8773333333333 53.3333333333333C120.5653333333333 29.3973333333333 140.6933333333333 10.6666666666667 165.3333333333333 10.6666666666667S210.1013333333333 29.3973333333333 212.7893333333333 53.3333333333333H245.3333333333333C251.2213333333333 53.3333333333333 256 58.112 256 64V128C256 132.0426666666667 253.7173333333334 135.7333333333334 250.1013333333333 137.5466666666667zM165.3333333333333 32C150.6346666666667 32 138.6666666666667 43.9573333333333 138.6666666666667 58.6666666666667S150.6346666666667 85.3333333333333 165.3333333333333 85.3333333333333S192 73.376 192 58.6666666666667S180.032 32 165.3333333333333 32zM138.6666666666667 149.3333333333334V181.3333333333334H185.0026666666667L192 149.3333333333334H138.6666666666667z" />
    <glyph glyph-name="b-meeting"
      unicode="&#xEA07;"
      horiz-adv-x="256" d="M245.3333333333333 256H117.3333333333333C111.4453333333333 256 106.6666666666667 251.2213333333334 106.6666666666667 245.3333333333334V128L160 170.6666666666667H245.3333333333333C251.2213333333333 170.6666666666667 256 175.4453333333334 256 181.3333333333333V245.3333333333334C256 251.2213333333334 251.2213333333333 256 245.3333333333333 256zM105.4293333333333 48.0106666666667C96.2453333333333 55.3066666666667 80.672 64 58.6666666666667 64S21.088 55.3066666666667 11.9146666666667 48.0213333333333C4.3413333333333 42.016 0 32.9386666666667 0 23.0826666666667V0H117.3333333333333V23.0826666666667C117.3333333333333 32.9386666666667 112.992 42.016 105.4293333333333 48.0106666666667zM21.3333333333333 112A37.33333333333334 37.33333333333334 0 0 1 96 112A37.33333333333334 37.33333333333334 0 0 1 21.3333333333333 112M244.096 48.0106666666667C234.912 55.3066666666667 219.3386666666667 64 197.3333333333333 64S159.7546666666667 55.3066666666667 150.5813333333333 48.0213333333333C143.008 42.016 138.6666666666667 32.9386666666667 138.6666666666667 23.0826666666667V0H256V23.0826666666667C256 32.9386666666667 251.6586666666667 42.016 244.096 48.0106666666667zM160 112A37.33333333333334 37.33333333333334 0 0 1 234.6666666666667 112A37.33333333333334 37.33333333333334 0 0 1 160 112" />
    <glyph glyph-name="alert-circle-i"
      unicode="&#xEA08;"
      horiz-adv-x="256" d="M128 256C57.4186666666667 256 0 198.5813333333333 0 128S57.4186666666667 0 128 0S256 57.4186666666667 256 128S198.5813333333333 256 128 256zM156.352 60.9706666666667C149.3013333333333 58.1973333333334 124.864 46.528 110.784 58.9333333333334C106.5813333333333 62.624 104.4906666666666 67.3066666666667 104.4906666666666 72.992C104.4906666666666 83.6373333333334 107.9893333333333 92.9173333333334 114.2933333333333 115.2C115.4026666666667 119.4133333333334 116.7573333333333 124.8746666666667 116.7573333333333 129.2053333333334C116.7573333333333 136.6826666666667 113.92 138.6666666666667 106.2293333333333 138.6666666666667C102.4746666666666 138.6666666666667 98.3146666666666 137.3333333333334 94.5493333333333 135.9253333333334L96.6293333333333 144.448C105.024 147.8613333333333 115.5626666666666 152.0213333333334 124.5866666666666 152.0213333333334C138.1226666666666 152.0213333333334 148.0853333333333 145.2693333333334 148.0853333333333 132.4266666666667C148.0853333333333 128.7253333333334 147.4453333333333 122.2400000000001 146.1013333333333 117.76L138.3146666666666 90.2186666666667C136.7039999999999 84.6506666666667 133.7919999999999 72.3733333333333 138.3039999999999 68.736C142.7413333333333 65.1413333333334 153.2479999999999 67.0506666666667 158.4319999999999 69.4933333333333L156.352 60.9706666666667zM143.488 170.6666666666667C134.656 170.6666666666667 127.488 177.8346666666667 127.488 186.6666666666667S134.656 202.6666666666667 143.488 202.6666666666667S159.488 195.4986666666667 159.488 186.6666666666667S152.32 170.6666666666667 143.488 170.6666666666667z" />
    <glyph glyph-name="speaker"
      unicode="&#xEA09;"
      horiz-adv-x="256" d="M175.8293333333334 244C172.4586666666667 245.8666666666667 168.2986666666667 245.7706666666667 165.0026666666667 243.712L82.272 192H42.6666666666667C19.136 192 0 172.864 0 149.3333333333334S19.136 106.6666666666667 42.6666666666667 106.6666666666667H82.272L165.0133333333333 54.9546666666667C166.7413333333333 53.8773333333333 168.6933333333333 53.3333333333333 170.6666666666667 53.3333333333333C172.448 53.3333333333333 174.2293333333333 53.7813333333334 175.8293333333333 54.6666666666667C179.232 56.5546666666667 181.3333333333333 60.128 181.3333333333333 64V234.6666666666667C181.3333333333333 238.5386666666667 179.232 242.112 175.8293333333334 244zM213.3333333333333 160H256V138.6666666666667H213.3333333333333V160zM196.5698773333333 201.2334293333333L233.5327157333333 222.5678282666667L244.1972490666667 204.0910282666667L207.2344106666666 182.7566293333333L196.5698773333333 201.2334293333333zM196.565696 97.4338773333333L207.2302293333333 115.9106773333333L244.1930677333333 94.5762784L233.5285344 76.0994784L196.565696 97.4338773333333zM82.1546666666667 85.3333333333333H44.6933333333333L73.8666666666667 20.832C77.728 12.1813333333334 87.8613333333333 8.3093333333334 96.512 12.16C105.1626666666667 16.0213333333334 109.0346666666667 26.1546666666667 105.184 34.8053333333334L82.1546666666667 85.3333333333333z" />
    <glyph glyph-name="alert-circle-exc"
      unicode="&#xEA0A;"
      horiz-adv-x="256" d="M128 256C57.4186666666667 256 0 198.5813333333333 0 128S57.4186666666667 0 128 0S256 57.4186666666667 256 128S198.5813333333333 256 128 256zM145.5466666666667 202.6666666666667L138.6666666666667 106.6666666666667H117.3333333333333L110.848 202.6666666666667H145.5466666666667zM128 42.6666666666667C116.2133333333334 42.6666666666667 106.6666666666667 52.2133333333334 106.6666666666667 64C106.6666666666667 75.7866666666667 116.2133333333334 85.3333333333334 128 85.3333333333334C139.7866666666667 85.3333333333334 149.3333333333334 75.7866666666667 149.3333333333334 64C149.3333333333333 52.2133333333333 139.7866666666667 42.6666666666667 128 42.6666666666667z" />
    <glyph glyph-name="alert-circle-que"
      unicode="&#xEA0B;"
      horiz-adv-x="256" d="M128 256C57.4186666666667 256 0 198.5813333333333 0 128S57.4186666666667 0 128 0S256 57.4186666666667 256 128S198.5813333333333 256 128 256zM122.6666666666667 53.3333333333333C113.8346666666667 53.3333333333333 106.6666666666667 60.5013333333334 106.6666666666667 69.3333333333333S113.8346666666667 85.3333333333333 122.6666666666667 85.3333333333333S138.6666666666667 78.1653333333333 138.6666666666667 69.3333333333333S131.4986666666667 53.3333333333333 122.6666666666667 53.3333333333333zM168.6506666666667 147.9786666666667C165.3546666666667 142.6986666666667 159.0933333333333 136.768 149.856 130.176C134.912 119.1253333333334 135.3173333333333 116.672 135.3173333333333 106.6666666666667H109.1093333333333C109.1093333333333 114.4853333333333 108.9386666666667 120.4906666666667 113.1626666666667 127.7973333333333C115.8613333333333 132.48 120.8106666666667 137.4613333333333 128 142.7306666666667C136.6293333333333 148.896 145.0133333333333 154.8373333333333 145.0133333333333 165.184C145.0133333333333 174.88 136.7146666666667 178.336 127.0186666666667 178.336C117.1306666666667 178.336 105.856 175.104 93.1946666666667 168.64L82.4106666666667 190.2933333333333C105.4186666666667 203.1893333333333 141.728 209.024 161.5786666666667 192.864C176.1493333333333 180.992 176.2346666666667 160.1173333333333 168.6506666666667 147.9786666666667z" />
    <glyph glyph-name="alert-circle-i-2"
      unicode="&#xEA0C;"
      horiz-adv-x="256" d="M128 256C57.4186666666667 256 0 198.5813333333333 0 128S57.4186666666667 0 128 0S256 57.4186666666667 256 128S198.5813333333333 256 128 256zM156.352 60.9706666666667C149.3013333333333 58.1973333333334 124.864 46.528 110.784 58.9333333333334C106.5813333333333 62.624 104.4906666666666 67.3066666666667 104.4906666666666 72.992C104.4906666666666 83.6373333333334 107.9893333333333 92.9173333333334 114.2933333333333 115.2C115.4026666666667 119.4133333333334 116.7573333333333 124.8746666666667 116.7573333333333 129.2053333333334C116.7573333333333 136.6826666666667 113.92 138.6666666666667 106.2293333333333 138.6666666666667C102.4746666666666 138.6666666666667 98.3146666666666 137.3333333333334 94.5493333333333 135.9253333333334L96.6293333333333 144.448C105.024 147.8613333333333 115.5626666666666 152.0213333333334 124.5866666666666 152.0213333333334C138.1226666666666 152.0213333333334 148.0853333333333 145.2693333333334 148.0853333333333 132.4266666666667C148.0853333333333 128.7253333333334 147.4453333333333 122.2400000000001 146.1013333333333 117.76L138.3146666666666 90.2186666666667C136.7039999999999 84.6506666666667 133.7919999999999 72.3733333333333 138.3039999999999 68.736C142.7413333333333 65.1413333333334 153.2479999999999 67.0506666666667 158.4319999999999 69.4933333333333L156.352 60.9706666666667zM143.488 170.6666666666667C134.656 170.6666666666667 127.488 177.8346666666667 127.488 186.6666666666667S134.656 202.6666666666667 143.488 202.6666666666667S159.488 195.4986666666667 159.488 186.6666666666667S152.32 170.6666666666667 143.488 170.6666666666667z" />
    <glyph glyph-name="pin-user"
      unicode="&#xEA11;"
      horiz-adv-x="256" d="M128 256C80.8106666666667 256 32 220.096 32 160C32 103.584 116.8106666666667 17.4613333333334 120.4266666666667 13.8133333333333C122.432 11.7973333333334 125.152 10.6666666666667 128 10.6666666666667S133.568 11.7973333333333 135.5733333333333 13.8133333333334C139.1893333333333 17.4613333333334 224 103.584 224 160C224 220.096 175.1893333333333 256 128 256zM128 202.6666666666667C139.7866666666667 202.6666666666667 149.3333333333334 193.12 149.3333333333334 181.3333333333334C149.3333333333334 169.5466666666667 139.7866666666667 160 128 160S106.6666666666667 169.5466666666667 106.6666666666667 181.3333333333334C106.6666666666667 193.12 116.2133333333333 202.6666666666667 128 202.6666666666667zM85.3333333333333 117.3333333333334C85.3333333333333 135.008 99.6586666666667 149.3333333333334 117.3333333333333 149.3333333333334H138.6666666666667C156.3413333333333 149.3333333333334 170.6666666666667 135.008 170.6666666666667 117.3333333333334H85.3333333333333z" />
    <glyph glyph-name="pin-search"
      unicode="&#xEA12;"
      horiz-adv-x="256" d="M117.3333333333333 64C117.3333333333333 99.296 146.0373333333333 128 181.3333333333333 128C189.4933333333333 128 197.2693333333333 126.4106666666667 204.4586666666667 123.616C209.8773333333333 136.3306666666667 213.3333333333333 148.7573333333334 213.3333333333333 160C213.3333333333333 220.096 164.5226666666667 256 117.3333333333333 256S21.3333333333333 220.096 21.3333333333333 160C21.3333333333333 103.584 106.1546666666667 17.4613333333334 109.76 13.8133333333333C111.7653333333333 11.7973333333334 114.4853333333333 10.6666666666667 117.3333333333333 10.6666666666667S122.9013333333333 11.7973333333333 124.9066666666667 13.8133333333334C125.5146666666667 14.4213333333334 128.544 17.5146666666667 132.9386666666667 22.24C123.2426666666667 33.472 117.3333333333333 48.0426666666667 117.3333333333333 64zM85.3333333333333 160C85.3333333333333 177.6746666666667 99.6586666666667 192 117.3333333333333 192S149.3333333333333 177.6746666666667 149.3333333333333 160S135.008 128 117.3333333333333 128S85.3333333333333 142.3253333333333 85.3333333333333 160zM242.208 18.208L217.952 42.464C221.7066666666667 48.8106666666667 224 56.1066666666667 224 64C224 87.5306666666667 204.864 106.6666666666667 181.3333333333334 106.6666666666667S138.6666666666667 87.5306666666667 138.6666666666667 64S157.8026666666667 21.3333333333333 181.3333333333334 21.3333333333333C189.2266666666667 21.3333333333333 196.5226666666667 23.6266666666667 202.8693333333334 27.3813333333333L227.1253333333334 3.1253333333333L242.208 18.208zM181.3333333333333 42.6666666666667C169.568 42.6666666666667 160 52.2346666666667 160 64S169.568 85.3333333333334 181.3333333333333 85.3333333333334S202.6666666666667 75.7653333333334 202.6666666666667 64S193.0986666666667 42.6666666666667 181.3333333333333 42.6666666666667z" />
    <glyph glyph-name="pin-3"
      unicode="&#xEA13;"
      horiz-adv-x="256" d="M128 256C81.0666666666667 256 32 219.7333333333334 32 160C32 103.4666666666667 117.3333333333333 17.0666666666667 120.5333333333333 13.8666666666667C122.6666666666667 11.7333333333333 124.8 10.6666666666667 128 10.6666666666667S133.3333333333334 11.7333333333333 135.4666666666667 13.8666666666667C138.6666666666667 17.0666666666667 224 103.4666666666667 224 160C224 219.7333333333334 174.9333333333333 256 128 256zM128 128C109.8666666666667 128 96 141.8666666666667 96 160S109.8666666666667 192 128 192S160 178.1333333333333 160 160S146.1333333333333 128 128 128z" />
    <glyph glyph-name="browser-chrome"
      unicode="&#xEA14;"
      horiz-adv-x="256" d="M85.3333333333333 128A42.666666666666664 42.666666666666664 0 0 1 170.6666666666667 128A42.666666666666664 42.666666666666664 0 0 1 85.3333333333333 128M67.2213333333333 147.936C75.6266666666667 173.4933333333334 99.6693333333333 192 128 192H237.3546666666667C215.1786666666667 230.1973333333334 173.9306666666667 256 126.6666666666667 256C88.2133333333333 256 53.7493333333333 238.88 30.272 211.9466666666667L67.2213333333333 147.936zM141.0986666666667 65.3546666666667C136.864 64.4693333333333 132.4906666666667 64 128 64C104.352 64 83.7226666666667 76.9173333333334 72.64 96.032L72.576 96L16.576 192.9813333333334C5.28 173.9093333333333 -1.3333333333333 151.7333333333334 -1.3333333333333 128C-1.3333333333333 64.9706666666667 44.4906666666667 12.576 104.544 2.048L141.0986666666667 65.3546666666667zM175.5733333333333 170.6666666666667C185.7493333333334 159.328 192 144.4053333333334 192 128C192 116.352 188.8213333333334 105.4506666666667 183.36 96.032L183.424 96L128.0426666666667 0.0746666666667C197.984 0.8213333333333 254.6666666666667 57.888 254.6666666666667 128C254.6666666666667 142.976 251.9466666666667 157.3013333333333 247.2 170.6666666666667H175.5733333333333z" />
    <glyph glyph-name="browser-firefox"
      unicode="&#xEA15;"
      horiz-adv-x="256" d="M128 256C90.624 256 57.0453333333333 239.7973333333334 33.632 214.176C28.096 222.1013333333334 26.656 231.712 26.656 231.712S8.5226666666667 218.1866666666667 13.3866666666667 185.3546666666667C13.3866666666667 185.3546666666667 13.3333333333333 184.928 13.2266666666667 184.3093333333334C4.8426666666667 167.2853333333334 0 148.224 0 128C0 57.4186666666667 57.4186666666667 0 128 0S256 57.4186666666667 256 128S198.5813333333333 256 128 256zM216.5973333333333 187.3173333333334C221.3973333333333 103.1573333333333 156.8213333333333 37.5253333333334 91.2106666666667 85.44C91.3173333333333 85.4186666666667 120.16 85.0986666666667 130.4426666666667 90.624C136.928 94.112 145.216 101.0026666666667 149.216 100.352C155.7013333333333 99.392 157.2266666666666 104.608 153.9626666666667 108.352C150.2186666666667 112.6613333333334 140.2986666666667 120.8 128.7786666666667 115.3386666666667C97.1626666666667 100.3626666666667 76.0746666666667 122.5066666666667 79.7333333333333 135.4773333333334C80.416 137.92 83.0293333333333 141.1413333333334 84.128 141.3546666666667C89.4826666666667 146.5493333333334 120.4266666666667 166.912 124.2986666666667 176.3626666666667C125.216 178.6026666666667 126.2506666666667 183.8613333333333 123.2533333333333 184.96C118.2826666666667 186.144 106.4533333333333 186.1866666666667 102.08 186.1546666666667C93.7493333333333 186.08 88.16 191.2746666666667 88.5333333333333 196.448C89.0026666666667 202.9013333333333 93.504 210.944 106.2826666666667 221.4826666666667C84.3413333333333 224.6826666666667 71.68 207.1786666666667 71.6693333333333 207.1573333333333C67.5626666666667 208.1813333333333 62.6773333333333 208.416 58.0266666666667 208.3093333333334C76.7786666666667 224.672 101.216 234.6666666666667 128 234.6666666666667C164.8746666666667 234.6666666666667 197.4293333333333 215.84 216.5973333333333 187.3173333333334z" />
    <glyph glyph-name="globe"
      unicode="&#xEA16;"
      horiz-adv-x="256" d="M128 256C57.4186666666667 256 0 198.5813333333333 0 128S57.4186666666667 0 128 0S256 57.4186666666667 256 128S198.5813333333333 256 128 256zM234.1226666666667 138.6666666666667H197.0453333333334C195.5733333333334 172.9066666666667 187.1146666666667 202.88 174.208 223.9893333333333C206.88 208.192 230.368 176.3413333333334 234.1226666666667 138.6666666666667zM117.3333333333333 231.4666666666667V138.6666666666667H80.2666666666667C82.496 186.336 99.36 221.2266666666667 117.3333333333333 231.4666666666667zM117.3333333333333 117.3333333333334V24.5333333333334C99.36 34.7733333333334 82.496 69.664 80.2666666666667 117.3333333333334H117.3333333333333zM138.6666666666667 24.5333333333334V117.3333333333334H175.7333333333333C173.504 69.664 156.64 34.7733333333334 138.6666666666667 24.5333333333334zM138.6666666666667 138.6666666666667V231.4666666666667C156.64 221.2266666666667 173.504 186.336 175.7333333333333 138.6666666666667H138.6666666666667zM81.7813333333333 223.9893333333333C68.8853333333333 202.88 60.416 172.9066666666667 58.944 138.6666666666667H21.8773333333333C25.632 176.3413333333334 49.12 208.192 81.7813333333333 223.9893333333333zM21.8773333333333 117.3333333333334H58.9546666666667C60.4266666666667 83.0933333333334 68.8853333333333 53.12 81.792 32.0106666666667C49.12 47.808 25.632 79.6586666666667 21.8773333333333 117.3333333333334zM174.2186666666667 32.0106666666667C187.1146666666667 53.12 195.584 83.0933333333333 197.056 117.3333333333334H234.1333333333334C230.368 79.6586666666667 206.88 47.808 174.2186666666667 32.0106666666667z" />
    <glyph glyph-name="browser-safari"
      unicode="&#xEA17;"
      horiz-adv-x="256" d="M128 0C57.4186666666667 0 0 57.4186666666667 0 128S57.4186666666667 256 128 256S256 198.5813333333333 256 128S198.5813333333333 0 128 0zM128 234.6666666666667C69.184 234.6666666666667 21.3333333333333 186.816 21.3333333333333 128S69.184 21.3333333333333 128 21.3333333333333S234.6666666666667 69.184 234.6666666666667 128S186.816 234.6666666666667 128 234.6666666666667zM192 192L111.8826666666667 143.8826666666667L64 64L144.288 111.9573333333333z" />
    <glyph glyph-name="bag-20"
      unicode="&#xEA18;"
      horiz-adv-x="256" d="M224 202.6666666666667H181.3333333333334C181.3333333333334 232.5333333333334 157.8666666666667 256 128 256S74.6666666666667 232.5333333333334 74.6666666666667 202.6666666666667H32C25.6 202.6666666666667 21.3333333333333 198.4 21.3333333333333 192V10.6666666666667C21.3333333333333 4.2666666666667 25.6 0 32 0H224C230.4 0 234.6666666666667 4.2666666666667 234.6666666666667 10.6666666666667V192C234.6666666666667 198.4 230.4 202.6666666666667 224 202.6666666666667zM128 234.6666666666667C146.1333333333333 234.6666666666667 160 220.8 160 202.6666666666667H96C96 220.8 109.8666666666667 234.6666666666667 128 234.6666666666667z" />
    <glyph glyph-name="shop"
      unicode="&#xEA19;"
      horiz-adv-x="256" d="M254.4746666666667 186.8266666666667L222.4746666666667 240.16A10.666666666666666 10.666666666666666 0 0 1 213.3333333333333 245.3333333333334H42.6666666666667A10.666666666666666 10.666666666666666 0 0 1 33.5253333333333 240.16L1.5253333333333 186.8266666666667A10.666666666666666 10.666666666666666 0 0 1 0 181.3333333333334A42.592 42.592 0 0 1 42.4853333333333 138.6666666666667H42.5706666666667A42.38933333333334 42.38933333333334 0 0 1 71.0933333333333 149.6A42.410666666666664 42.410666666666664 0 0 1 127.968 149.6A42.410666666666664 42.410666666666664 0 0 1 184.896 149.6A42.581333333333326 42.581333333333326 0 0 1 256 181.3333333333334A10.666666666666666 10.666666666666666 0 0 1 254.4746666666667 186.8266666666667zM213.504 117.3333333333334A64.096 64.096 0 0 0 184.928 124.032L184.768 123.9573333333334A63.44533333333334 63.44533333333334 0 0 0 136.0853333333333 120.6506666666667A65.06666666666666 65.06666666666666 0 0 0 127.9786666666667 124L127.8613333333333 123.9466666666667A63.33866666666667 63.33866666666667 0 0 0 79.1893333333333 120.6506666666667A64.91733333333335 64.91733333333335 0 0 0 71.0933333333333 124A63.89333333333333 63.89333333333333 0 0 0 42.5706666666667 117.3333333333334A65.568 65.568 0 0 0 32 118.2933333333334V10.6666666666667A10.666666666666666 10.666666666666666 0 0 1 42.6666666666667 0H106.6666666666667V64H149.3333333333333V0H213.3333333333333A10.666666666666666 10.666666666666666 0 0 1 224 10.6666666666667V118.336A64.36266666666666 64.36266666666666 0 0 0 213.504 117.3333333333334z" />
    <glyph glyph-name="p-settings"
      unicode="&#xEA1A;"
      horiz-adv-x="256" d="M256 53.3333333333333V74.6666666666667H233.1626666666667C232.16 78.5493333333334 230.624 82.176 228.64 85.5466666666667L244.8 101.7066666666667L229.7173333333334 116.7893333333333L213.5573333333333 100.6293333333333C210.1866666666667 102.6133333333334 206.56 104.1493333333334 202.6773333333333 105.152V128H181.344V105.1626666666667C177.4613333333333 104.16 173.8346666666667 102.624 170.464 100.64L154.304 116.8L139.2213333333334 101.7173333333333L155.3813333333334 85.5573333333333C153.3973333333333 82.1866666666667 151.8613333333333 78.56 150.8586666666667 74.6773333333333H128V53.344H150.8373333333333C151.84 49.4613333333333 153.376 45.8346666666667 155.36 42.464L139.2 26.304L154.2826666666667 11.2213333333333L170.4426666666667 27.3813333333333C173.8133333333333 25.3973333333333 177.44 23.8613333333333 181.3226666666667 22.8586666666667V0H202.656V22.8373333333333C206.5386666666667 23.84 210.1653333333333 25.376 213.536 27.36L229.696 11.2L244.7786666666667 26.2826666666667L228.6186666666667 42.4426666666667C230.6026666666667 45.8133333333333 232.1386666666667 49.44 233.1413333333333 53.3226666666667H256zM192 53.3333333333333C186.112 53.3333333333333 181.3333333333334 58.112 181.3333333333334 64C181.3333333333334 69.888 186.112 74.6666666666667 192 74.6666666666667S202.6666666666667 69.888 202.6666666666667 64C202.6666666666667 58.112 197.888 53.3333333333333 192 53.3333333333333zM112.928 32H32C26.112 32 21.3333333333333 36.7786666666667 21.3333333333333 42.6666666666667V213.3333333333334C21.3333333333333 219.2213333333334 26.112 224 32 224H160C165.888 224 170.6666666666667 219.2213333333334 170.6666666666667 213.3333333333334V146.5386666666667C177.4933333333334 148.2986666666667 184.6186666666667 149.3333333333334 192 149.3333333333334V224C192 241.6426666666667 177.6426666666667 256 160 256H32C14.3573333333333 256 0 241.6426666666667 0 224V32C0 14.3573333333333 14.3573333333333 0 32 0H135.6906666666667C125.8133333333333 8.6933333333334 117.952 19.6053333333334 112.928 32z" />
    <glyph glyph-name="p-location"
      unicode="&#xEA1B;"
      horiz-adv-x="256" d="M150.8693333333333 32H53.3333333333333C47.4453333333333 32 42.6666666666667 36.7786666666667 42.6666666666667 42.6666666666667V213.3333333333334C42.6666666666667 219.2213333333334 47.4453333333333 224 53.3333333333333 224H181.3333333333333C187.2213333333333 224 192 219.2213333333334 192 213.3333333333334V159.168C195.5413333333334 159.6693333333333 199.104 160 202.6666666666667 160S209.792 159.6693333333333 213.3333333333333 159.168V224C213.3333333333333 241.6426666666667 198.976 256 181.3333333333333 256H53.3333333333333C35.6906666666667 256 21.3333333333333 241.6426666666667 21.3333333333333 224V32C21.3333333333333 14.3573333333333 35.6906666666667 0 53.3333333333333 0H178.7093333333333C172.2666666666667 6.2826666666667 161.12 17.8986666666667 150.8693333333333 32zM202.6666666666667 138.6666666666667C176.448 138.6666666666667 149.3333333333333 119.4453333333334 149.3333333333333 87.2853333333333C149.3333333333333 58.3146666666667 190.6026666666667 18.1013333333333 195.3066666666667 13.6106666666667L202.6666666666667 6.592L210.0266666666667 13.6213333333333C214.7306666666667 18.112 256 58.3253333333333 256 87.296C256 119.4453333333334 228.8853333333333 138.6666666666667 202.6666666666667 138.6666666666667zM202.6666666666667 74.6666666666667C196.7786666666667 74.6666666666667 192 79.4453333333333 192 85.3333333333333C192 91.2213333333334 196.7786666666667 96 202.6666666666667 96S213.3333333333333 91.2213333333334 213.3333333333333 85.3333333333333C213.3333333333333 79.4453333333333 208.5546666666667 74.6666666666667 202.6666666666667 74.6666666666667z" />
    <glyph glyph-name="p-check"
      unicode="&#xEA1C;"
      horiz-adv-x="256" d="M181.3333333333333 6.2506666666667L144.9173333333333 42.6666666666667L160 57.7493333333334L181.3333333333333 36.416L234.6666666666667 89.7493333333333L249.7493333333334 74.6666666666667zM128 32H53.3333333333333C47.4453333333333 32 42.6666666666667 36.7786666666667 42.6666666666667 42.6666666666667V213.3333333333334C42.6666666666667 219.2213333333334 47.4453333333333 224 53.3333333333333 224H181.3333333333333C187.2213333333333 224 192 219.2213333333334 192 213.3333333333334V105.8133333333333C195.488 106.3146666666667 199.04 106.6666666666667 202.6666666666666 106.6666666666667S209.8453333333333 106.3146666666667 213.3333333333333 105.8133333333333V224C213.3333333333333 241.6426666666667 198.976 256 181.3333333333333 256H53.3333333333333C35.6906666666667 256 21.3333333333333 241.6426666666667 21.3333333333333 224V32C21.3333333333333 14.3573333333333 35.6906666666667 0 53.3333333333333 0H135.2853333333333C130.6666666666667 9.7066666666667 128 20.5333333333334 128 32z" />
  </font>
</defs>
</svg>
